<svg xmlns="http://www.w3.org/2000/svg" width="2119.402" height="494.25" viewBox="0 0 2119.402 494.25"> <metadata><?xpacket begin="﻿" id="W5M0MpCehiHzreSzNTczkc9d"?> <x:xmpmeta xmlns:x="adobe:ns:meta/" x:xmptk="Adobe XMP Core 5.6-c138 79.159824, 2016/09/14-01:09:01 "> <rdf:RDF xmlns:rdf="http://www.w3.org/1999/02/22-rdf-syntax-ns#"> <rdf:Description rdf:about=""/> </rdf:RDF> </x:xmpmeta> <?xpacket end="w"?></metadata> <defs><style>.cls-1{fill:#282828;fill-rule:evenodd}</style></defs> <path id="Pinelli" class="cls-1" d="M842.959,2662.81q-42.547-27.36-128.571-27.37H469.446v24.4q7.192,0.945,21.741,3.91,14.547,2.985,23.3,6.73,12.509,5.325,16.267,13.29a44.1,44.1,0,0,1,3.754,18.93v313.14q0,12.825-3.91,20.02t-16.111,12.2q-5.946,2.505-20.959,4.22t-24.087,2.66v24.4H710.008v-24.4q-9.7-.945-23.775-3.75-14.076-2.82-20.333-5.32-11.892-5.01-16.111-13.3t-4.223-19.55V2888.2h36.288q45.046,0,81.178-7.82t64.286-25.34a123.057,123.057,0,0,0,42.7-43.95q15.486-27.045,15.485-64.6Q885.5,2690.18,842.959,2662.81Zm-106.2,172.37q-26.747,23.625-78.05,23.62H645.566V2663.91h25.965q51.615,0,71.793,24.24t20.177,74.3Q763.5,2811.56,736.755,2835.18ZM1112.93,3056.5a93.539,93.539,0,0,1-15.64-3.12,104.973,104.973,0,0,1-13.77-5.01,28.415,28.415,0,0,1-13.45-11.42q-4.695-7.665-4.69-18.61V2769.96l-4.69-4.7L907.4,2773.4v22.83a111.922,111.922,0,0,1,20.8,4.38q11.415,3.45,17.049,7.2a41.518,41.518,0,0,1,12.513,13.29,36.536,36.536,0,0,1,5,19.24v182.07q0,11.565-4.067,18.61t-14.077,10.79a55.813,55.813,0,0,1-13.451,3.13q-7.824.945-15.954,1.56v22.84H1112.93V3056.5Zm-63.82-444.52q-18.15-16.89-43.48-16.89t-43.641,16.89q-18.3,16.89-18.3,40.67t18.3,40.51q18.3,16.74,43.641,16.73a62.035,62.035,0,0,0,43.32-16.73q18.3-16.74,18.3-40.51T1049.11,2611.98Zm505.53,444.52a89.872,89.872,0,0,1-16.74-3.12,109.323,109.323,0,0,1-12.36-4.38q-9.375-4.065-12.82-10.95t-3.44-18.46V2866.31q0-47.865-25.5-76.8t-76.48-28.94a146.537,146.537,0,0,0-40.05,5.32q-18.765,5.325-30.34,12.82a205.11,205.11,0,0,0-23.15,17.84q-12.51,10.95-21.27,18.77h-1.25v-45.36l-4.69-4.7-149.22,8.14v22.83a101.355,101.355,0,0,1,18.92,3.44,52.147,52.147,0,0,1,14.24,6.26,44.744,44.744,0,0,1,13.14,15.33,40.225,40.225,0,0,1,5,19.08v182.07q0,11.565-3.75,18.77-3.765,7.2-13.77,10.63a76.461,76.461,0,0,1-13.61,2.97q-7.965,1.11-15.79,1.72v22.84H1331.9V3056.5a96.854,96.854,0,0,1-14.7-3.12,59.72,59.72,0,0,1-12.51-5.01,21.777,21.777,0,0,1-10.32-11.11q-3.135-7.335-3.13-18.3V2850.98q3.75-5.01,9.25-11.58a71.943,71.943,0,0,1,14.59-12.82,87.007,87.007,0,0,1,21.17-10.95,70.869,70.869,0,0,1,23.37-3.76q22.89,0,34.66,16.11t11.76,48.02v146.41q0,12.825-2.81,19.39a19.909,19.909,0,0,1-9.39,10.01q-4.38,2.19-12.82,3.13t-14.39,1.56v22.84h188.01V3056.5Zm341.6-69.13a150.717,150.717,0,0,1-40.04,40.82q-23.46,16.125-52.87,16.11-53.8,0-78.52-33.47t-24.71-97.6h211.47V2892.9a158.867,158.867,0,0,0-8.13-50.84,106.648,106.648,0,0,0-25.97-42.07q-18.465-18.78-46.61-29.41t-71.95-10.63q-40.05,0-72.42,13.76t-53.65,35.97a164.519,164.519,0,0,0-45.04,113.25q0,35.355,10.79,65.53a141.3,141.3,0,0,0,32.69,52.4q21.885,22.215,55.53,35.35,33.615,13.14,79.92,13.14,27.84,0,49.27-6.1a192.987,192.987,0,0,0,42.39-17.99,160.16,160.16,0,0,0,35.19-27.06,190.326,190.326,0,0,0,26.44-33.63ZM1700.1,2886.95q1.245-52.86,15.64-77.27,14.385-24.39,38.48-24.4,14.07,0,23.3,7.51t14.55,22.21q4.7,12.525,6.57,32.22,1.875,19.71,1.88,38.48Zm441.08,169.55a81.181,81.181,0,0,1-16.38-3.12,123.907,123.907,0,0,1-13.22-5.01q-9.135-4.065-13.23-11.26t-4.09-18.77V2600.09l-4.7-5-157.66,8.13v22.84a103.376,103.376,0,0,1,22.37,4.38q12.675,3.75,18.93,7.82a37.026,37.026,0,0,1,12.98,15.48,50.621,50.621,0,0,1,4.85,22.06v346.61q0,11.565-3.62,18.61t-13.71,10.79a61.579,61.579,0,0,1-13.7,3.13q-7.71.945-15.9,1.56v22.84h197.08V3056.5Zm220.55,0a81.044,81.044,0,0,1-16.38-3.12,123.273,123.273,0,0,1-13.23-5.01q-9.135-4.065-13.23-11.26-4.08-7.2-4.09-18.77V2600.09l-4.7-5-157.65,8.13v22.84a103.3,103.3,0,0,1,22.36,4.38q12.675,3.75,18.93,7.82a37.026,37.026,0,0,1,12.98,15.48,50.621,50.621,0,0,1,4.85,22.06v346.61q0,11.565-3.62,18.61t-13.7,10.79a61.841,61.841,0,0,1-13.7,3.13q-7.725.945-15.9,1.56v22.84h197.08V3056.5Zm227.11,0a93.539,93.539,0,0,1-15.64-3.12,104.973,104.973,0,0,1-13.77-5.01,28.415,28.415,0,0,1-13.45-11.42q-4.7-7.665-4.69-18.61V2769.96l-4.7-4.7-153.28,8.14v22.83a111.746,111.746,0,0,1,20.8,4.38q11.415,3.45,17.05,7.2a41.5,41.5,0,0,1,12.52,13.29,36.561,36.561,0,0,1,5,19.24v182.07q0,11.565-4.07,18.61t-14.07,10.79a55.873,55.873,0,0,1-13.45,3.13q-7.83.945-15.96,1.56v22.84h197.71V3056.5Zm-63.82-444.52q-18.15-16.89-43.48-16.89-25.35,0-43.64,16.89t-18.3,40.67q0,23.775,18.3,40.51t43.64,16.73a62.035,62.035,0,0,0,43.32-16.73q18.3-16.74,18.3-40.51T2525.02,2611.98Z" transform="translate(-469.438 -2595.09)"/> </svg>