<svg xmlns="http://www.w3.org/2000/svg" width="216.594" height="57.844" viewBox="0 0 216.594 57.844">
  <metadata><?xpacket begin="﻿" id="W5M0MpCehiHzreSzNTczkc9d"?>
<x:xmpmeta xmlns:x="adobe:ns:meta/" x:xmptk="Adobe XMP Core 5.6-c138 79.159824, 2016/09/14-01:09:01        ">
   <rdf:RDF xmlns:rdf="http://www.w3.org/1999/02/22-rdf-syntax-ns#">
      <rdf:Description rdf:about=""/>
   </rdf:RDF>
</x:xmpmeta>
                                                                                                    
                                                                                                    
                                                                                                    
                                                                                                    
                                                                                                    
                                                                                                    
                                                                                                    
                                                                                                    
                                                                                                    
                                                                                                    
                                                                                                    
                                                                                                    
                                                                                                    
                                                                                                    
                                                                                                    
                                                                                                    
                                                                                                    
                                                                                                    
                                                                                                    
                                                                                                    
                           
<?xpacket end="w"?></metadata>
<defs>
    <style>
      .cls-1 {
        fill: #fff;
        fill-rule: evenodd;
      }
    </style>
  </defs>
  <path id="Luc_Pinelli_Front_Backend_Developer" data-name="Luc Pinelli Front &amp; Backend Developer" class="cls-1" d="M152.988,84.12a0.519,0.519,0,0,0,.513.505h13.917a0.457,0.457,0,0,0,.513-0.428V83.5a0.424,0.424,0,0,0-.513-0.506H154.841v-25.1a0.512,0.512,0,0,0-.473-0.506H153.5a0.519,0.519,0,0,0-.513.506V84.12ZM171.36,74.7c0,5.954,4.061,10.313,10.29,10.313,6.269,0,10.369-4.359,10.369-10.312V57.892a0.519,0.519,0,0,0-.513-0.506h-0.788a0.468,0.468,0,0,0-.552.506V74.547c0,5.019-3.233,8.678-8.516,8.678-5.244,0-8.437-3.7-8.437-8.717V57.892a0.519,0.519,0,0,0-.513-0.506h-0.828a0.518,0.518,0,0,0-.512.506V74.7Zm26.729-3.658a14.054,14.054,0,0,0,14.272,13.971,13.722,13.722,0,0,0,9.62-3.775,0.444,0.444,0,0,0,0-.662l-0.67-.662a0.5,0.5,0,0,0-.631.078,12.585,12.585,0,0,1-8.319,3.269,12.258,12.258,0,1,1,0-24.516,12.4,12.4,0,0,1,8.319,3.191,0.409,0.409,0,0,0,.67.039l0.631-.661a0.491,0.491,0,0,0-.04-0.7A13.6,13.6,0,0,0,212.361,57,14.144,14.144,0,0,0,198.089,71.045ZM236.921,84.12a0.519,0.519,0,0,0,.513.505h0.709a0.556,0.556,0,0,0,.631-0.505V74.936h7.175a8.776,8.776,0,1,0-.039-17.55h-8.476a0.519,0.519,0,0,0-.513.506V84.12Zm1.853-10.974V59.214h7.018a7.036,7.036,0,0,1,7.175,6.849,7.147,7.147,0,0,1-7.136,7.083h-7.057ZM260.339,84.12a0.518,0.518,0,0,0,.512.505h0.828a0.527,0.527,0,0,0,.552-0.505V57.892a0.518,0.518,0,0,0-.512-0.506h-0.868a0.518,0.518,0,0,0-.512.506V84.12Zm10.25,0a0.518,0.518,0,0,0,.512.505h0.75a0.518,0.518,0,0,0,.512-0.505V60.46h0.04C291.13,84.9,291.445,85.015,291.484,85.015H292a0.552,0.552,0,0,0,.631-0.506V57.892a0.519,0.519,0,0,0-.513-0.506h-0.788a0.519,0.519,0,0,0-.513.506V81.318h-0.039L271.851,57H271.18a0.539,0.539,0,0,0-.591.506V84.12Zm30.4,0a0.518,0.518,0,0,0,.512.505h15.81a0.519,0.519,0,0,0,.513-0.505V83.5a0.519,0.519,0,0,0-.513-0.506h-14.43V71.473h12.5a0.519,0.519,0,0,0,.513-0.506V70.305a0.519,0.519,0,0,0-.513-0.506h-12.5V59.059h14.43a0.519,0.519,0,0,0,.513-0.506V57.892a0.519,0.519,0,0,0-.513-0.506H301.5a0.518,0.518,0,0,0-.512.506V84.12Zm23.575,0a0.519,0.519,0,0,0,.513.505H338.99A0.457,0.457,0,0,0,339.5,84.2V83.5a0.424,0.424,0,0,0-.513-0.506H326.413v-25.1a0.512,0.512,0,0,0-.473-0.506h-0.867a0.519,0.519,0,0,0-.513.506V84.12Zm19.279,0a0.518,0.518,0,0,0,.512.505h13.917a0.457,0.457,0,0,0,.513-0.428V83.5a0.423,0.423,0,0,0-.513-0.506H345.692v-25.1a0.513,0.513,0,0,0-.473-0.506h-0.868a0.518,0.518,0,0,0-.512.506V84.12Zm19.278,0a0.519,0.519,0,0,0,.513.505h0.827a0.527,0.527,0,0,0,.552-0.505V57.892a0.518,0.518,0,0,0-.512-0.506H363.63a0.519,0.519,0,0,0-.513.506V84.12Zm-210.51,24.35a0.38,0.38,0,0,0,.38.38h1.3a0.394,0.394,0,0,0,.381-0.38v-5.261h5.341a0.393,0.393,0,0,0,.38-0.38v-1.1a0.393,0.393,0,0,0-.38-0.38h-5.341V96.728h6.321a0.38,0.38,0,0,0,.38-0.38v-1.12a0.38,0.38,0,0,0-.38-0.38h-8a0.38,0.38,0,0,0-.38.38V108.47Zm10,0a0.393,0.393,0,0,0,.38.38h0.96c0.32,0,.54-0.04.54-0.38v-5.081a2.109,2.109,0,0,1,1.8-.98,1.83,1.83,0,0,1,.68.14,0.341,0.341,0,0,0,.48-0.18l0.48-.98c0.22-.541-0.7-0.74-1.46-0.74a2.848,2.848,0,0,0-2.341,1.16l-0.22-.681a0.382,0.382,0,0,0-.34-0.28h-0.58a0.394,0.394,0,0,0-.38.381v7.241Zm6.06-3.64a4.043,4.043,0,1,0,4.041-4.181A4.147,4.147,0,0,0,168.667,104.83Zm1.78,0a2.267,2.267,0,1,1,4.521,0A2.272,2.272,0,1,1,170.447,104.83Zm8.3,3.64a0.393,0.393,0,0,0,.38.38h1.04c0.34,0,.46-0.12.46-0.38v-4.881a2.648,2.648,0,0,1,2.221-1.2c1.04,0,1.66.7,1.66,1.98v4.1a0.38,0.38,0,0,0,.38.38h1.141a0.393,0.393,0,0,0,.38-0.38v-4.021c0-2.08-.9-3.8-3.341-3.8a4.09,4.09,0,0,0-2.8,1.12l-0.24-.68a0.324,0.324,0,0,0-.32-0.241h-0.58a0.394,0.394,0,0,0-.38.381v7.241Zm10.62-1.8c0,1.42.46,2.38,2.041,2.38a6.134,6.134,0,0,0,2.34-.6,0.332,0.332,0,0,0,.18-0.48l-0.36-.88a0.3,0.3,0,0,0-.46-0.18,3.258,3.258,0,0,1-1.22.36c-0.38,0-.64-0.12-0.64-0.8v-3.961h2.04a0.38,0.38,0,0,0,.38-0.38v-0.9a0.369,0.369,0,0,0-.38-0.381h-2.04v-2.24a0.377,0.377,0,0,0-.361-0.38l-1.14.02a0.393,0.393,0,0,0-.38.38v2.22h-0.84a0.369,0.369,0,0,0-.38.381v0.9a0.38,0.38,0,0,0,.38.38h0.84v4.161Zm11.08-1.341a3.75,3.75,0,0,0,4.041,3.721,5.722,5.722,0,0,0,4.361-1.84l1.58,1.6a0.562,0.562,0,0,0,.86.06l0.52-.52c0.46-.46.28-0.68,0.04-0.92l-1.86-1.8a10.728,10.728,0,0,0,1.22-3.841,0.439,0.439,0,0,0-.34-0.621l-0.82-.159c-0.38-.081-0.54.039-0.56,0.479a7.214,7.214,0,0,1-.761,2.881l-2.8-2.8c0.78-.54,2.7-1.821,2.7-3.741a3.275,3.275,0,0,0-3.58-3.181,3.364,3.364,0,0,0-3.661,3.241,4.052,4.052,0,0,0,1.38,2.9l0.46,0.5v0.039C202.507,101.749,200.447,102.929,200.447,105.329Zm4.321-4.941-0.44-.44a2.894,2.894,0,0,1-1.161-2.041,1.675,1.675,0,0,1,1.781-1.72,1.779,1.779,0,0,1,1.9,1.72C206.848,99.248,205.368,100.029,204.768,100.388Zm-2.421,4.822a3.425,3.425,0,0,1,1.961-2.8l3.34,3.52a3.889,3.889,0,0,1-3,1.441A2.185,2.185,0,0,1,202.347,105.21Zm16.439,3.26a0.38,0.38,0,0,0,.38.38h4.7c2.521,0,4.361-1.62,4.361-3.86a3.621,3.621,0,0,0-2.5-3.261,3.847,3.847,0,0,0,2.08-3.181c0-2.1-1.74-3.7-4.161-3.7h-4.481a0.38,0.38,0,0,0-.38.38V108.47Zm2.041-7.542v-4.2h2.7a1.932,1.932,0,0,1,2.061,2.061,2.005,2.005,0,0,1-2.061,2.14h-2.7Zm-0.02,6.082v-4.281h2.74a2.3,2.3,0,0,1,2.461,2.1,2.131,2.131,0,0,1-2.161,2.18h-3.04Zm8.979-.64a2.484,2.484,0,0,0,2.581,2.68,3.451,3.451,0,0,0,2.46-1.02l0.2,0.54a0.336,0.336,0,0,0,.34.28h0.56a0.393,0.393,0,0,0,.38-0.38v-4.261c0-2-.239-3.56-2.8-3.56a8.231,8.231,0,0,0-2.761.46,0.359,0.359,0,0,0-.26.46l0.16,0.74a0.36,0.36,0,0,0,.44.32,8.508,8.508,0,0,1,2.241-.36c1.02,0,1.26.5,1.24,1.761a5.734,5.734,0,0,0-1.58-.241C230.946,103.789,229.786,104.909,229.786,106.37Zm1.74-.02a1.4,1.4,0,0,1,1.621-1.32,3.014,3.014,0,0,1,1.4.319v1.281a2.366,2.366,0,0,1-1.8,1A1.2,1.2,0,0,1,231.526,106.35Zm6.7-1.48a4.165,4.165,0,0,0,4.181,4.18,3.551,3.551,0,0,0,3.1-1.68,0.391,0.391,0,0,0-.141-0.56l-0.54-.44a0.366,0.366,0,0,0-.54.04,2.4,2.4,0,1,1-1.84-4.021,2.223,2.223,0,0,1,1.6.76c0.16,0.14.3,0.3,0.54,0.08l0.66-.6a0.391,0.391,0,0,0,.08-0.56,3.542,3.542,0,0,0-2.9-1.42A4.256,4.256,0,0,0,238.226,104.87Zm9.28,3.6a0.393,0.393,0,0,0,.38.38h1.16a0.393,0.393,0,0,0,.38-0.38v-3.5l3.621,3.721a0.507,0.507,0,0,0,.36.16h1.64a0.3,0.3,0,0,0,.22-0.52l-3.92-3.921,3.32-3.02a0.311,0.311,0,0,0-.22-0.541h-1.4a0.791,0.791,0,0,0-.5.241l-3.121,2.8V95.228a0.393,0.393,0,0,0-.38-0.38h-1.16a0.393,0.393,0,0,0-.38.38V108.47Zm8.62-3.621a4,4,0,0,0,4.021,4.2,4.6,4.6,0,0,0,2.96-1,0.31,0.31,0,0,0,.04-0.52l-0.56-.76c-0.16-.2-0.3-0.12-0.54.02a3.412,3.412,0,0,1-1.78.58,2.316,2.316,0,0,1-2.3-2.14h5.441a0.368,0.368,0,0,0,.36-0.341,4.673,4.673,0,0,0,.041-0.54,3.6,3.6,0,0,0-3.681-3.7A4.02,4.02,0,0,0,256.126,104.849Zm1.94-.88a2.024,2.024,0,0,1,2.041-1.78,1.892,1.892,0,0,1,1.84,1.78h-3.881Zm7.66,4.5a0.393,0.393,0,0,0,.38.38h1.04c0.34,0,.46-0.12.46-0.38v-4.881a2.647,2.647,0,0,1,2.221-1.2c1.04,0,1.66.7,1.66,1.98v4.1a0.38,0.38,0,0,0,.38.38h1.14a0.393,0.393,0,0,0,.38-0.38v-4.021c0-2.08-.9-3.8-3.34-3.8a4.087,4.087,0,0,0-2.8,1.12l-0.24-.68a0.324,0.324,0,0,0-.32-0.241h-0.58a0.394,0.394,0,0,0-.38.381v7.241Zm9.58-3.621a3.967,3.967,0,0,0,3.74,4.2,3.576,3.576,0,0,0,2.541-1.12l0.16,0.58a0.4,0.4,0,0,0,.36.34h0.6a0.393,0.393,0,0,0,.38-0.38V95.228a0.393,0.393,0,0,0-.38-0.38h-1.16a0.393,0.393,0,0,0-.38.38v5.861a4.818,4.818,0,0,0-1.921-.44A4.035,4.035,0,0,0,275.306,104.849Zm1.86,0a2.323,2.323,0,0,1,2.28-2.46,3.32,3.32,0,0,1,1.741.48v3.26a2.151,2.151,0,0,1-1.9,1.2A2.268,2.268,0,0,1,277.166,104.849Zm13.559,3.621a0.376,0.376,0,0,0,.36.38h4.6a7,7,0,1,0,0-14h-4.6a0.376,0.376,0,0,0-.36.38V108.47Zm2.041-1.52v-10.2h2.64a5.1,5.1,0,0,1,0,10.2h-2.64Zm11.339-2.1a4,4,0,0,0,4.021,4.2,4.6,4.6,0,0,0,2.961-1,0.31,0.31,0,0,0,.04-0.52l-0.56-.76c-0.16-.2-0.3-0.12-0.54.02a3.419,3.419,0,0,1-1.781.58,2.316,2.316,0,0,1-2.3-2.14h5.441a0.368,0.368,0,0,0,.36-0.341,4.9,4.9,0,0,0,.04-0.54,3.6,3.6,0,0,0-3.681-3.7A4.02,4.02,0,0,0,304.105,104.849Zm1.941-.88a2.024,2.024,0,0,1,2.04-1.78,1.893,1.893,0,0,1,1.841,1.78h-3.881Zm10.12,4.881a0.355,0.355,0,0,0,.34.2h0.1a0.355,0.355,0,0,0,.34-0.2l3.541-7.541a0.3,0.3,0,0,0-.3-0.461h-0.921a0.5,0.5,0,0,0-.54.221l-2.16,4.721h-0.02l-2.081-4.721a0.368,0.368,0,0,0-.36-0.221h-1.18a0.3,0.3,0,0,0-.3.461Zm5.259-4a4,4,0,0,0,4.021,4.2,4.6,4.6,0,0,0,2.96-1,0.31,0.31,0,0,0,.04-0.52l-0.56-.76c-0.16-.2-0.3-0.12-0.54.02a3.412,3.412,0,0,1-1.78.58,2.317,2.317,0,0,1-2.3-2.14h5.442a0.368,0.368,0,0,0,.36-0.341,4.9,4.9,0,0,0,.04-0.54,3.6,3.6,0,0,0-3.681-3.7A4.02,4.02,0,0,0,321.425,104.849Zm1.94-.88a2.024,2.024,0,0,1,2.041-1.78,1.892,1.892,0,0,1,1.84,1.78h-3.881Zm7.66,4.5a0.393,0.393,0,0,0,.38.38h1.14a0.393,0.393,0,0,0,.38-0.38V95.228a0.393,0.393,0,0,0-.38-0.38h-1.14a0.393,0.393,0,0,0-.38.38V108.47Zm3.9-3.64a4.043,4.043,0,1,0,4.04-4.181A4.147,4.147,0,0,0,334.925,104.83Zm1.78,0a2.267,2.267,0,1,1,4.521,0A2.272,2.272,0,1,1,336.705,104.83Zm10.22,3.68a4.127,4.127,0,1,0,2.04-7.861,3.383,3.383,0,0,0-2.44.98l-0.2-.52a0.353,0.353,0,0,0-.34-0.261h-0.6a0.394,0.394,0,0,0-.38.381v13.242a0.394,0.394,0,0,0,.38.381h1.12a0.37,0.37,0,0,0,.42-0.381V108.51Zm-0.04-1.76v-3.2a2.043,2.043,0,0,1,1.84-1.16,2.279,2.279,0,0,1,2.2,2.481,2.336,2.336,0,0,1-2.281,2.46A2.964,2.964,0,0,1,346.885,106.75Zm7.339-1.9a4,4,0,0,0,4.021,4.2,4.6,4.6,0,0,0,2.961-1,0.31,0.31,0,0,0,.04-0.52l-0.56-.76c-0.16-.2-0.3-0.12-0.54.02a3.416,3.416,0,0,1-1.781.58,2.316,2.316,0,0,1-2.3-2.14h5.441a0.368,0.368,0,0,0,.36-0.341,4.9,4.9,0,0,0,.04-0.54,3.6,3.6,0,0,0-3.681-3.7A4.02,4.02,0,0,0,354.224,104.849Zm1.941-.88a2.024,2.024,0,0,1,2.04-1.78,1.893,1.893,0,0,1,1.841,1.78h-3.881Zm7.659,4.5a0.393,0.393,0,0,0,.38.38h0.961c0.32,0,.54-0.04.54-0.38v-5.081a2.108,2.108,0,0,1,1.8-.98,1.83,1.83,0,0,1,.68.14,0.341,0.341,0,0,0,.48-0.18l0.48-.98c0.22-.541-0.7-0.74-1.46-0.74a2.848,2.848,0,0,0-2.34,1.16l-0.221-.681a0.382,0.382,0,0,0-.34-0.28H364.2a0.394,0.394,0,0,0-.38.381v7.241Z" transform="translate(-152.594 -57)"/>
</svg>
